<mxfile host="Electron" agent="Mozilla/5.0 (Macintosh; Intel Mac OS X 10_15_7) AppleWebKit/537.36 (KHTML, like Gecko) draw.io/26.1.1 Chrome/132.0.6834.210 Electron/34.3.3 Safari/537.36" version="26.1.1">
  <diagram name="Page-1" id="TAaeRITt-auhjdZxGod5">
    <mxGraphModel dx="1114" dy="878" grid="1" gridSize="10" guides="1" tooltips="1" connect="1" arrows="1" fold="1" page="1" pageScale="1" pageWidth="827" pageHeight="1169" math="0" shadow="0">
      <root>
        <mxCell id="0" />
        <mxCell id="1" parent="0" />
        <mxCell id="ccvMMQn5-AT3v08Tgr03-19" value="" style="endArrow=block;html=1;rounded=0;endFill=1;strokeWidth=2;" edge="1" parent="1">
          <mxGeometry width="50" height="50" relative="1" as="geometry">
            <mxPoint x="220" y="96" as="sourcePoint" />
            <mxPoint x="550" y="96" as="targetPoint" />
          </mxGeometry>
        </mxCell>
        <mxCell id="ccvMMQn5-AT3v08Tgr03-20" style="edgeStyle=orthogonalEdgeStyle;rounded=0;orthogonalLoop=1;jettySize=auto;html=1;endArrow=none;startFill=0;" edge="1" parent="1" source="ccvMMQn5-AT3v08Tgr03-21">
          <mxGeometry relative="1" as="geometry">
            <mxPoint x="280" y="56" as="targetPoint" />
          </mxGeometry>
        </mxCell>
        <mxCell id="ccvMMQn5-AT3v08Tgr03-21" value="" style="rounded=0;whiteSpace=wrap;html=1;fillColor=#dae8fc;strokeColor=#6c8ebf;" vertex="1" parent="1">
          <mxGeometry x="260" y="76" width="40" height="40" as="geometry" />
        </mxCell>
        <mxCell id="ccvMMQn5-AT3v08Tgr03-26" value="메인 스레드에서 runBlocking() 호출" style="text;html=1;align=center;verticalAlign=middle;whiteSpace=wrap;rounded=0;fillColor=#d5e8d4;strokeColor=none;sketch=1;curveFitting=1;jiggle=2;" vertex="1" parent="1">
          <mxGeometry x="190" y="30" width="190" height="30" as="geometry" />
        </mxCell>
        <mxCell id="ccvMMQn5-AT3v08Tgr03-29" value="" style="endArrow=none;dashed=1;html=1;rounded=0;fillColor=#f8cecc;strokeColor=#b85450;strokeWidth=2;opacity=50;" edge="1" parent="1">
          <mxGeometry width="50" height="50" relative="1" as="geometry">
            <mxPoint x="300" y="356" as="sourcePoint" />
            <mxPoint x="300" y="116" as="targetPoint" />
          </mxGeometry>
        </mxCell>
        <mxCell id="ccvMMQn5-AT3v08Tgr03-30" value="" style="endArrow=none;dashed=1;html=1;rounded=0;fillColor=#f8cecc;strokeColor=#b85450;strokeWidth=2;opacity=50;" edge="1" parent="1">
          <mxGeometry width="50" height="50" relative="1" as="geometry">
            <mxPoint x="520" y="276" as="sourcePoint" />
            <mxPoint x="520" y="116" as="targetPoint" />
          </mxGeometry>
        </mxCell>
        <mxCell id="ccvMMQn5-AT3v08Tgr03-35" value="" style="rounded=0;whiteSpace=wrap;html=1;fillColor=#ffe6cc;strokeColor=#d79b00;" vertex="1" parent="1">
          <mxGeometry x="435" y="446" width="20" height="40" as="geometry" />
        </mxCell>
        <mxCell id="ccvMMQn5-AT3v08Tgr03-36" value="runBlocking 코루틴" style="text;html=1;align=center;verticalAlign=middle;whiteSpace=wrap;rounded=0;" vertex="1" parent="1">
          <mxGeometry x="460" y="456" width="100" height="20" as="geometry" />
        </mxCell>
        <mxCell id="ccvMMQn5-AT3v08Tgr03-37" value="메인 스레드" style="text;html=1;align=center;verticalAlign=middle;whiteSpace=wrap;rounded=0;fontStyle=1;fontSize=13;" vertex="1" parent="1">
          <mxGeometry x="150" y="81" width="70" height="30" as="geometry" />
        </mxCell>
        <mxCell id="ccvMMQn5-AT3v08Tgr03-39" value="" style="endArrow=block;html=1;rounded=0;endFill=1;strokeWidth=2;" edge="1" parent="1">
          <mxGeometry width="50" height="50" relative="1" as="geometry">
            <mxPoint x="220" y="196" as="sourcePoint" />
            <mxPoint x="550" y="196" as="targetPoint" />
          </mxGeometry>
        </mxCell>
        <mxCell id="ccvMMQn5-AT3v08Tgr03-42" style="edgeStyle=orthogonalEdgeStyle;rounded=0;orthogonalLoop=1;jettySize=auto;html=1;endArrow=none;startFill=0;" edge="1" parent="1" source="ccvMMQn5-AT3v08Tgr03-43">
          <mxGeometry relative="1" as="geometry">
            <mxPoint x="311" y="236" as="targetPoint" />
          </mxGeometry>
        </mxCell>
        <mxCell id="ccvMMQn5-AT3v08Tgr03-43" value="" style="rounded=0;whiteSpace=wrap;html=1;fillColor=#ffe6cc;strokeColor=#d79b00;" vertex="1" parent="1">
          <mxGeometry x="301" y="176" width="20" height="40" as="geometry" />
        </mxCell>
        <mxCell id="ccvMMQn5-AT3v08Tgr03-44" style="edgeStyle=orthogonalEdgeStyle;rounded=0;orthogonalLoop=1;jettySize=auto;html=1;endArrow=none;startFill=0;" edge="1" parent="1" source="ccvMMQn5-AT3v08Tgr03-45">
          <mxGeometry relative="1" as="geometry">
            <mxPoint x="510" y="236" as="targetPoint" />
          </mxGeometry>
        </mxCell>
        <mxCell id="ccvMMQn5-AT3v08Tgr03-45" value="" style="rounded=0;whiteSpace=wrap;html=1;fillColor=#ffe6cc;strokeColor=#d79b00;" vertex="1" parent="1">
          <mxGeometry x="500" y="176" width="20" height="40" as="geometry" />
        </mxCell>
        <mxCell id="ccvMMQn5-AT3v08Tgr03-46" value="백그라운드 스레드&lt;div&gt;(DefaultDispatcher-worker-1)&lt;/div&gt;" style="text;html=1;align=center;verticalAlign=middle;whiteSpace=wrap;rounded=0;fontStyle=1;fontSize=13;" vertex="1" parent="1">
          <mxGeometry x="20" y="181" width="200" height="30" as="geometry" />
        </mxCell>
        <mxCell id="ccvMMQn5-AT3v08Tgr03-47" value="delay(1000L) 호출" style="text;html=1;align=center;verticalAlign=middle;whiteSpace=wrap;rounded=0;fillColor=#d5e8d4;strokeColor=none;sketch=1;curveFitting=1;jiggle=2;" vertex="1" parent="1">
          <mxGeometry x="261" y="236" width="100" height="30" as="geometry" />
        </mxCell>
        <mxCell id="ccvMMQn5-AT3v08Tgr03-48" value="" style="endArrow=none;dashed=1;html=1;rounded=0;fillColor=#f8cecc;strokeColor=#b85450;strokeWidth=2;opacity=50;" edge="1" parent="1">
          <mxGeometry width="50" height="50" relative="1" as="geometry">
            <mxPoint x="520" y="356" as="sourcePoint" />
            <mxPoint x="520" y="96" as="targetPoint" />
          </mxGeometry>
        </mxCell>
        <mxCell id="ccvMMQn5-AT3v08Tgr03-49" value="코루틴 종료 출력" style="text;html=1;align=center;verticalAlign=middle;whiteSpace=wrap;rounded=0;fillColor=#d5e8d4;strokeColor=none;sketch=1;curveFitting=1;jiggle=2;" vertex="1" parent="1">
          <mxGeometry x="460" y="236" width="100" height="30" as="geometry" />
        </mxCell>
        <mxCell id="ccvMMQn5-AT3v08Tgr03-50" value="" style="endArrow=none;html=1;rounded=0;exitX=1;exitY=0;exitDx=0;exitDy=0;entryX=0;entryY=0;entryDx=0;entryDy=0;dashed=1;startFill=0;strokeWidth=2;fillColor=#f8cecc;strokeColor=#b85450;" edge="1" parent="1" source="ccvMMQn5-AT3v08Tgr03-43" target="ccvMMQn5-AT3v08Tgr03-45">
          <mxGeometry width="50" height="50" relative="1" as="geometry">
            <mxPoint x="330" y="175" as="sourcePoint" />
            <mxPoint x="500" y="175" as="targetPoint" />
          </mxGeometry>
        </mxCell>
        <mxCell id="ccvMMQn5-AT3v08Tgr03-51" value="1초간 대기" style="text;html=1;align=center;verticalAlign=middle;whiteSpace=wrap;rounded=0;fillColor=#d5e8d4;strokeColor=none;sketch=1;curveFitting=1;jiggle=2;" vertex="1" parent="1">
          <mxGeometry x="390" y="145" width="60" height="30" as="geometry" />
        </mxCell>
        <mxCell id="ccvMMQn5-AT3v08Tgr03-52" value="" style="endArrow=block;startArrow=block;html=1;rounded=0;startFill=1;endFill=1;strokeWidth=2;" edge="1" parent="1">
          <mxGeometry width="50" height="50" relative="1" as="geometry">
            <mxPoint x="301" y="326" as="sourcePoint" />
            <mxPoint x="520" y="326" as="targetPoint" />
          </mxGeometry>
        </mxCell>
        <mxCell id="ccvMMQn5-AT3v08Tgr03-53" value="runBlocking 코루틴을 호출한&amp;nbsp;&lt;div&gt;메인 스레드가 차단되는 구간&lt;/div&gt;" style="text;html=1;align=center;verticalAlign=middle;whiteSpace=wrap;rounded=0;fillColor=#d5e8d4;strokeColor=none;sketch=1;curveFitting=1;jiggle=2;" vertex="1" parent="1">
          <mxGeometry x="321" y="336" width="170" height="30" as="geometry" />
        </mxCell>
      </root>
    </mxGraphModel>
  </diagram>
</mxfile>
